<?xml version="1.0" standalone="no"?>
<svg xmlns:xlink="http://www.w3.org/1999/xlink" id="wave" style="transform:rotate(0deg); transition: 0.3s" viewBox="0 0 1440 100" version="1.1" xmlns="http://www.w3.org/2000/svg"><defs><linearGradient id="sw-gradient-0" x1="0" x2="0" y1="1" y2="0"><stop stop-color="rgba(238, 238, 238, 1)" offset="0%"/><stop stop-color="rgba(238, 238, 238, 1)" offset="100%"/></linearGradient></defs><path style="transform:translate(0, 0px); opacity:1" fill="url(#sw-gradient-0)" d="M0,60L40,58.3C80,57,160,53,240,58.3C320,63,400,77,480,83.3C560,90,640,90,720,88.3C800,87,880,83,960,70C1040,57,1120,33,1200,28.3C1280,23,1360,37,1440,38.3C1520,40,1600,30,1680,36.7C1760,43,1840,67,1920,70C2000,73,2080,57,2160,51.7C2240,47,2320,53,2400,51.7C2480,50,2560,40,2640,30C2720,20,2800,10,2880,13.3C2960,17,3040,33,3120,38.3C3200,43,3280,37,3360,38.3C3440,40,3520,50,3600,53.3C3680,57,3760,53,3840,43.3C3920,33,4000,17,4080,16.7C4160,17,4240,33,4320,33.3C4400,33,4480,17,4560,8.3C4640,0,4720,0,4800,3.3C4880,7,4960,13,5040,23.3C5120,33,5200,47,5280,51.7C5360,57,5440,53,5520,45C5600,37,5680,23,5720,16.7L5760,10L5760,100L5720,100C5680,100,5600,100,5520,100C5440,100,5360,100,5280,100C5200,100,5120,100,5040,100C4960,100,4880,100,4800,100C4720,100,4640,100,4560,100C4480,100,4400,100,4320,100C4240,100,4160,100,4080,100C4000,100,3920,100,3840,100C3760,100,3680,100,3600,100C3520,100,3440,100,3360,100C3280,100,3200,100,3120,100C3040,100,2960,100,2880,100C2800,100,2720,100,2640,100C2560,100,2480,100,2400,100C2320,100,2240,100,2160,100C2080,100,2000,100,1920,100C1840,100,1760,100,1680,100C1600,100,1520,100,1440,100C1360,100,1280,100,1200,100C1120,100,1040,100,960,100C880,100,800,100,720,100C640,100,560,100,480,100C400,100,320,100,240,100C160,100,80,100,40,100L0,100Z"/></svg>